<svg id="Layer_1" data-name="Layer 1" xmlns="http://www.w3.org/2000/svg" viewBox="0 0 375 168"><defs><style>.cls-1{fill:#579a62;}</style></defs><title>Logo-WhatTheFood</title><path class="cls-1" d="M56.62,78.15a.38.38,0,0,1,.12-.28l.25-.28.37,1.5a10.41,10.41,0,0,0,.52-1.74,5.15,5.15,0,0,1,.58-1.58l.22-.55c.1-.42.22-.86.37-1.3s.27-.89.37-1.31a3.25,3.25,0,0,0,.15-1v-1a3.38,3.38,0,0,0,.07-.63v-.71a7,7,0,0,1,0-.79,2,2,0,0,0-.11-.79,1.31,1.31,0,0,0-.11-.55c-.08-.16,0-.37.18-.64a.61.61,0,0,0-.07-.47,1,1,0,0,1,0-.79.77.77,0,0,0,.11-.48.64.64,0,0,1,.11-.47,1,1,0,0,0-.08-.83,1.05,1.05,0,0,1-.14-.75,2.3,2.3,0,0,0-.45-1.35,1,1,0,0,1-.22-.87c.25-.79.13-1.31-.36-1.58a1,1,0,0,1-.48-.59c-.07-.24-.16-.49-.26-.75a1.89,1.89,0,0,1-.11-.36.36.36,0,0,0-.18-.27,4.15,4.15,0,0,1-1.11-1.19,4,4,0,0,0-.36-.63,1.8,1.8,0,0,1-.3-.71,1.26,1.26,0,0,0-.59-1l-.51-.24a2.46,2.46,0,0,0-.85-.59c-.31-.13-.65-.25-1-.36a11.77,11.77,0,0,0-1.43-.51,11.42,11.42,0,0,1-1.44-.52l-1,.4-.37.79a1.29,1.29,0,0,0-.07.71c.09.26.19.53.29.79s.2.53.29.79a2.49,2.49,0,0,0,.37.67q.23.29.81.12a1,1,0,0,1,1.1.48,4.41,4.41,0,0,1,.22,1.34l.15,4c0,1.43-.06,2.85-.18,4.27s-.31,2.9-.55,4.43a26.07,26.07,0,0,1-.74,3.68c-.34,1.24-.71,2.49-1.1,3.75-.25.9-.54,1.81-.88,2.73l-1,2.73L46,86.13c-.44,1.11-1,2.39-1.72,3.84S42.79,92.8,42,94.12a38.58,38.58,0,0,1-2.17,3.4q-1,1.42-1.65,1.5c-.42,0-.64-.46-.67-1.54a28.6,28.6,0,0,1,.85-5.66,30.16,30.16,0,0,1,.66-3.36c.3-1.13.64-2.3,1-3.51.34-1,.67-1.93,1-2.93s.6-2,.85-2.93a8.25,8.25,0,0,1,.88-2.21,5.78,5.78,0,0,0,.7-1.74A14.1,14.1,0,0,1,44,73.4c.1-.26.1-.42,0-.47s-.2-.23-.15-.36a1.46,1.46,0,0,0,.07-.51,2.81,2.81,0,0,0,.11-.6A.62.62,0,0,0,43.9,71a5.87,5.87,0,0,1-.36-.59,1,1,0,0,1-.08-.67.84.84,0,0,0-.4-.84,7.4,7.4,0,0,0-.92-.35l-.88-.32a5.61,5.61,0,0,0-1-.23,10.46,10.46,0,0,1-1.14-.24,2.13,2.13,0,0,0-1.28.08c-.25.1-.52.21-.81.31a1,1,0,0,0-.59.48,10.6,10.6,0,0,0-.81,1.34,5.5,5.5,0,0,0-.52,1.43,18.91,18.91,0,0,1-.8,2.8c-.35.93-.72,1.83-1.11,2.73-.39,1.11-.83,2.2-1.32,3.28s-1,2.18-1.54,3.28c-.2.43-.41.86-.63,1.31s-.43.91-.63,1.38a2,2,0,0,1-.51.63,1.17,1.17,0,0,0-.55.44c-.12.18-.26.41-.41.67A32.07,32.07,0,0,1,24.79,93c-.89,1.21-1.6,1.81-2.14,1.78s-.87-.71-1-2.06a30.39,30.39,0,0,1,.41-6.28,9.55,9.55,0,0,0,.07-1v-.91c.05-.53.07-1,.07-1.54a7,7,0,0,1,.15-1.46c.15-1,.28-1.9.4-2.85s.29-1.87.48-2.77c.2-1.05.38-2.12.55-3.2s.38-2.15.63-3.2c.1-.74.17-1.43.22-2.06a3.9,3.9,0,0,0-.29-1.82,1.47,1.47,0,0,1-.23-.87.91.91,0,0,0-1.1-.87,7.58,7.58,0,0,0-1.1.08,11.05,11.05,0,0,0-1.1.24.93.93,0,0,0-.08.39,13.05,13.05,0,0,1-.11,2.57c-.12.87-.28,1.76-.48,2.65-.24,1.06-.44,2.14-.58,3.25a19,19,0,0,1-.74,3.24c-.69,2-1.29,4.11-1.8,6.16s-1,4.12-1.58,6.17c-.25,1.11-.54,2.23-.88,3.36s-.67,2.31-1,3.52a17.28,17.28,0,0,0-.48,3.6,18.84,18.84,0,0,0,.26,3.52,1.74,1.74,0,0,0,.73,1.18,3.16,3.16,0,0,0,2.5.64l3.61-.16h.59a24.59,24.59,0,0,0,2.75-1.07,10.45,10.45,0,0,0,2.54-1.7,3.51,3.51,0,0,0,.66-.55c.2-.21.42-.42.66-.64,1.47-2,2.56-3.3,3.28-4.07s1.22-1.05,1.54-.87.49.83.51,1.94.09,2.58.19,4.43c.1.26.19.51.29.75a2.35,2.35,0,0,0,.44.67,4.6,4.6,0,0,0,1.44,1.27c.56.31,1.11.6,1.65.86a3.15,3.15,0,0,0,1.91.24,2.21,2.21,0,0,1,.67-.08,2.79,2.79,0,0,0,1.94-.39,5.26,5.26,0,0,0,1.59-1.5c.73-1,1.45-1.91,2.16-2.89s1.39-1.94,2-2.89,1-1.67,1.5-2.49L50,92.85l1.39-2.53c.1-.21.19-.41.26-.59a3.7,3.7,0,0,0,.19-.59,3,3,0,0,1,.44-1,5.72,5.72,0,0,1,.66-.83,2.43,2.43,0,0,0,.59-.75c.09-.24.19-.52.29-.83s.18-.65.26-1a1.46,1.46,0,0,1,.77-.91.7.7,0,0,0,.22-.48c.3-.89.6-1.76.92-2.61A10.16,10.16,0,0,0,56.62,78.15Zm1.22-3.56c0-.11.13-.24.33-.4a5.86,5.86,0,0,1,0,.75c0,.24,0,.47,0,.68H58A4,4,0,0,1,57.84,74.59Zm-6.66-.48a26.42,26.42,0,0,1-1.32,4.59h-.29q.21-.8.36-1.5c.1-.48.22-1,.37-1.51s.28-1,.41-1.58a10.47,10.47,0,0,1,.47-1.5,11.5,11.5,0,0,0,.33-1.54A5.93,5.93,0,0,1,52,69.53C51.75,71.06,51.48,72.58,51.18,74.11Zm1.88-10.75A4.44,4.44,0,0,0,53,64a3.48,3.48,0,0,0,0,.63,1,1,0,0,1-.26.64c-.15,0-.24,0-.29.08l.44-3.8H53a3.65,3.65,0,0,0,0,.59,5.66,5.66,0,0,1,0,.6C53.1,62.94,53.08,63.15,53.06,63.36Z"/><path class="cls-1" d="M139.71,67.79h-3.82l-2.72.23a1.36,1.36,0,0,1-.74-.15,2.17,2.17,0,0,0,.08-.64l.44-1.89.22-1.27a2.08,2.08,0,0,0,0-1.11,4.65,4.65,0,0,1-.11-.59,4.3,4.3,0,0,1,0-.67,6,6,0,0,0-.51-2.53,2.32,2.32,0,0,0-.56-1,1.29,1.29,0,0,0-1.14-.16.16.16,0,0,1-.14.08,2,2,0,0,0-.7.12.91.91,0,0,1-.7,0,1.24,1.24,0,0,0-1,.32l-.51.63a9.41,9.41,0,0,0-1.29,1.54c-.36.55-.74,1.15-1.14,1.78a22.66,22.66,0,0,0-1,2.25,18.29,18.29,0,0,1-1,2.26,5,5,0,0,1-.36,1,5.87,5.87,0,0,0-.37.9,1,1,0,0,1-.74.64l-1.1.12a4.66,4.66,0,0,0-1,.19l-3,.72a1.31,1.31,0,0,0-.37.15,1.09,1.09,0,0,0,.18.44l.26.27,1.32.87a1.07,1.07,0,0,0,.7.32,3.5,3.5,0,0,1,.7.08c.44.11.67.34.7.71a4.48,4.48,0,0,1-.18,1.35,15.66,15.66,0,0,1-.56,1.62,9.3,9.3,0,0,0-.47,1.46l-.67,2.53c-.09.26-.18.53-.25.79a7.55,7.55,0,0,0-.19.79l-.36,1.58c-.45,1.58-.82,2.9-1.14,4-.08.25-.15.5-.22.75a15.41,15.41,0,0,1-1.58,2.17l-1.18,1.11-1.62,1-.7.43a6.56,6.56,0,0,1-.7.36,3.82,3.82,0,0,1-.77.23l-.77.16a.72.72,0,0,1-.66-.39,7.2,7.2,0,0,1-.66-2,2.8,2.8,0,0,1,.22-1.66l1-2.21a1.68,1.68,0,0,0,.14-.4c-.05-.42-.11-.82-.18-1.19a3,3,0,0,0-.48-1.1l-.44-.48a1.56,1.56,0,0,0-1.62-.55l-1.54,2.69c-.2.31-.39.62-.59.91a8.57,8.57,0,0,1-.66.83l-.59.71a4.64,4.64,0,0,1-1.1,1.34,23.11,23.11,0,0,0-2.43,2.3l-.29.23v-.31a9.46,9.46,0,0,1,.88-2.61,2,2,0,0,1,.29-.48l.74-1.1c.29-.43.57-.85.84-1.27a14.36,14.36,0,0,1,.92-1.26l.89-1a7.7,7.7,0,0,1,1.17-1.42c.44-.43.86-.85,1.25-1.27v-.08c.3-.26.59-.5.88-.71a5.68,5.68,0,0,1,1-.55,1.38,1.38,0,0,0,.66-1.59l-.22-.63a3.14,3.14,0,0,0-.55-.71c-.22-.21-.45-.45-.7-.71a.47.47,0,0,0-.37-.16.76.76,0,0,1-.51-.2.76.76,0,0,0-.52-.19l-.14-.08a.57.57,0,0,0-.33-.28l-.48-.12a1,1,0,0,1-.44-.16,3,3,0,0,0-.77-.2,2.62,2.62,0,0,1-.78-.19h-.22a5.37,5.37,0,0,0-.7,0,4.55,4.55,0,0,0-.69.12,1.47,1.47,0,0,0-.67.15,14.43,14.43,0,0,0-2.79,2.45q-.81,1.11-1.65,2.22a27.51,27.51,0,0,0-1.59,2.29.51.51,0,0,0-.14.24,6,6,0,0,0-1,1.38c-.27.5-.53,1-.78,1.54a6.93,6.93,0,0,0-.52,1.66,4.81,4.81,0,0,0-.47.83A9.37,9.37,0,0,1,90.52,90a2.75,2.75,0,0,1-1.17,1.1,2.88,2.88,0,0,0-1.18,1s-.15.19-.44.4-.6.44-.92.71-.77.6-1.36,1c-.3.26-.82.68-1.58,1.26a11.25,11.25,0,0,1-2.32,1.38,3,3,0,0,1-2,.28c-.57-.16-.77-.84-.63-2,.15-.43.35-1,.59-1.7S80,92,80.3,91.19s.56-1.54.81-2.25a14.47,14.47,0,0,0,.51-1.78c.1-.53.24-1.19.41-2a20.91,20.91,0,0,0,.37-2.45,22.63,22.63,0,0,0,.07-2.45,3.72,3.72,0,0,0-.48-1.9,4.94,4.94,0,0,0-3.89-.95,7.7,7.7,0,0,0-3.83,2.22c-.24.26-.59.62-1,1.07L71.88,82.1c-.46.47-.92.92-1.36,1.34a11.74,11.74,0,0,0-1,1.11A8.91,8.91,0,0,1,68.61,86c-.49.71-1,1.41-1.54,2.1a10.14,10.14,0,0,1-1.44,1.54c-.42.34-.62.25-.62-.28s.18-1,.25-1.3.16-.66.26-.95.21-.59.33-.91L66.33,85q.38-1,.81-2T68,81c.34-.74.68-1.45,1-2.13s.71-1.4,1.1-2.14L71.48,74c.29-.53.6-1.06.92-1.59s.62-1.08.92-1.66a1.43,1.43,0,0,0,.25-.43,1.5,1.5,0,0,1,.26-.44A4.9,4.9,0,0,0,74.6,69c.22-.31.46-.68.7-1.1a17.86,17.86,0,0,1,1.58-2.41c.66-.87,1.26-1.6,1.8-2.18l1-1.19c.35-.47.71-.65,1.11-.55l.88.32.59.23a1,1,0,0,1,.51.56c.1.26.22.21.37-.16a3.33,3.33,0,0,0,.22-1.82,3.88,3.88,0,0,0-.51-1.5,10.06,10.06,0,0,0-1.26-3A17.72,17.72,0,0,0,79.27,53a8.54,8.54,0,0,0-2.83-2.09,2.33,2.33,0,0,0-2.68.35,21.17,21.17,0,0,0-3.61,4.19,38.86,38.86,0,0,0-2.5,4c-.78,1.42-1.54,2.9-2.28,4.42-.63,1.22-1.22,2.42-1.76,3.6S62.53,69.82,62,71c-.59,2-1.33,4.38-2.24,7.12S58,83.76,57.32,86.76a67.82,67.82,0,0,0-1.5,8.94,23.24,23.24,0,0,0,.44,8,4.11,4.11,0,0,0,1,2.69,3.24,3.24,0,0,0,.47.56,1.59,1.59,0,0,1,.41.55.54.54,0,0,1,.22.2.24.24,0,0,0,.22.12c.24,0,.29,0,.15,0s-.08-.07.22-.12a4.22,4.22,0,0,1,.55-.12.41.41,0,0,1,.4.12h.44a3.81,3.81,0,0,0,.23-.4,1,1,0,0,1,.22-.31,1.64,1.64,0,0,0,.58-.79,4.58,4.58,0,0,0,.3-1.11c0-.27.11-.53.18-.79a7.55,7.55,0,0,0,.19-.79c.09-.27.17-.49.22-.67s.09-.41.14-.68a4.94,4.94,0,0,1,.44-1.42c.15-.26.43-.84.85-1.74L65.08,96c.49-1.05,1-2,1.43-2.92s.78-1.48.92-1.74a12.07,12.07,0,0,1,.78-1c.26-.31.52-.63.77-.95l3.75-5a5.07,5.07,0,0,0,.88-1.26,1.63,1.63,0,0,1,.4-.64,4,4,0,0,0,.41-.39,7.79,7.79,0,0,1,1.18-1.46,4.66,4.66,0,0,1,1.61-1.11,3.19,3.19,0,0,1,1.77-.2,2.17,2.17,0,0,1,1.47,1.27v.71a1.45,1.45,0,0,1-.15.63,12.78,12.78,0,0,1-.51,1.58q-.37.87-1.11,2.49c-.49,1.08-1,2.2-1.54,3.36s-1,2.3-1.51,3.4a11.58,11.58,0,0,0-.84,2.69,6.19,6.19,0,0,0,.55,4.23,3.92,3.92,0,0,0,2.31,1.74,5.6,5.6,0,0,0,2.95-.08A5.17,5.17,0,0,0,83,100s.22-.2.52-.44.6-.5.92-.79.62-.56.92-.83.48-.44.58-.55a11.26,11.26,0,0,1,.63-1c.22-.32.45-.63.7-1a2.78,2.78,0,0,1,1.06-.75,1.53,1.53,0,0,0,.92-.83,3,3,0,0,1,.63-1.22,12.84,12.84,0,0,0,.77-1.07c.19-.37.37-.69.51-1l.41-.71c.07-.12.17-.26.26-.39a5.84,5.84,0,0,0,3.52,5.13c.2.11.38.2.56.28l.55.28a3.51,3.51,0,0,0,3,.23l.85-.31a1.94,1.94,0,0,0,.77-.64l.15-.08.81-.55a7.8,7.8,0,0,1,1.54-1,3.56,3.56,0,0,0,.81.79,5.27,5.27,0,0,0,1,.56l.37.23A3.63,3.63,0,0,0,107,95c.41.13.84.27,1.28.43h.66a4.07,4.07,0,0,1,.89-.2,2.54,2.54,0,0,0,.8-.19,3.57,3.57,0,0,1,.89-.2,4.62,4.62,0,0,0,1-.2,3.4,3.4,0,0,0,1.4-.79c.25-.26.49-.51.74-.75s.47-.47.71-.73c0,.35-.09.68-.13,1-.09,1.08-.14,2.43-.14,4.07,0,.58.12,1.24.22,2a15.45,15.45,0,0,0,.36,1.9,3.69,3.69,0,0,0,.45,1.11c.19.32.39.66.58,1a7.6,7.6,0,0,0,.81,1.3,11.83,11.83,0,0,0,1.18,1.31,11.65,11.65,0,0,0,1.32,1.1,2.91,2.91,0,0,0,1.25.56,6.33,6.33,0,0,0,1.4.15,14.46,14.46,0,0,0,1.47-.07,2.33,2.33,0,0,0,.66-.16c.3-.11.61-.24,1-.4s.67-.3,1-.43a4,4,0,0,0,.7-.36,11.41,11.41,0,0,0,1.69-1.66,12.72,12.72,0,0,1,1.76-1.74,4.66,4.66,0,0,0,.78-.91c.41-.55.85-1.16,1.32-1.82s.89-1.26,1.29-1.82.63-.9.73-1.06l2-4,1.39-3.8a1.78,1.78,0,0,0,.23-.51c.09-.29.19-.61.29-1s.18-.65.26-.91a2.73,2.73,0,0,0,.11-.56q-.07-.32,0-.39c.08-.05.11-.21.11-.48,0-.1,0-.11-.22,0a.83.83,0,0,1-.58,0l-1.4,3.4a10.06,10.06,0,0,0-.85,2.14,12.34,12.34,0,0,1-.84,2.21,9.67,9.67,0,0,1-.85,1.43c-.37.52-.76,1.05-1.17,1.58s-.84,1-1.25,1.5l-1.07,1.19c-.1.1-.3.29-.59.55s-.61.53-1,.79-.66.53-.95.79a4.84,4.84,0,0,1-.59.48,2.11,2.11,0,0,1-1.32.39h-1.33c-.1,0-.16,0-.18,0a.18.18,0,0,0-.11,0,2.88,2.88,0,0,0-.33-.43,2.12,2.12,0,0,1-.33-.52,13.34,13.34,0,0,1-.48-1.78,15.84,15.84,0,0,1-.26-1.85,17.05,17.05,0,0,1,.08-2.69c.09-1.06.22-2.12.36-3.2a28.94,28.94,0,0,1,.56-3,14.25,14.25,0,0,1,.62-2.09,1.65,1.65,0,0,0,.33-.91,2.15,2.15,0,0,1,.26-.91c.19-.32.38-.65.55-1a5.11,5.11,0,0,0,.4-1.07,8.28,8.28,0,0,1,.37-1.19c.15-.36.32-.76.52-1.18l.36-.87c.49-1.32,1-2.61,1.55-3.88s1-2.58,1.47-4l.15-.24c.14-.36.34-.58.58-.63l1.7-.24a1.41,1.41,0,0,1,.47-.07.86.86,0,0,0,.48-.16,5,5,0,0,1,1.55-.24,3.3,3.3,0,0,0,1.32-.12,9.53,9.53,0,0,1,1.25-.28l.07-.07,1.62-.8.51-.39.3-.48-.7-.15A2.64,2.64,0,0,0,139.71,67.79Zm-11.32,5.06a9.48,9.48,0,0,1-.44,1.34q-.53,1.11-.81,1.86t-.66,1.86c-.25.74-.55,1.53-.92,2.37a10.51,10.51,0,0,1-1,1.82c-.27.37-.42.38-.44,0a16.25,16.25,0,0,1,.55-3c.34-1.21.63-2.33.85-3.36s.52-2.2.92-3.52a3.18,3.18,0,0,1,1.36-.67c.32,0,.51.07.59.28A1.85,1.85,0,0,1,128.39,72.85Zm2.35-10.76-.29,1.9-.22,1.11-.44,2.45a1.25,1.25,0,0,1-.56.79,1.12,1.12,0,0,1-.8.16,1.1,1.1,0,0,1-.7-.48,1.46,1.46,0,0,1-.15-1.18c.1-.42.18-.84.26-1.27s.16-.84.25-1.26l.45-1,.29-.71c.1-.37.21-.72.33-1.07s.26-.67.4-1a2,2,0,0,1,.67-.79c.19-.21.34-.13.44.24s.08.73.11,1.07A5.43,5.43,0,0,1,130.74,62.09Z"/><path class="cls-1" d="M232,86.13a15.71,15.71,0,0,1-1.06,1.46c-.37.45-.75.89-1.14,1.31l-1.33,1.58-.22.24c-.64.58-1.25,1.14-1.84,1.7s-1.2,1.09-1.83,1.62A15.23,15.23,0,0,1,219.5,97,3.89,3.89,0,0,0,219,97c-.27.06-.56.11-.88.16l-.88.12a5.59,5.59,0,0,1-.56,0,3,3,0,0,1-1.76-.91c-.59-.55-1.15-1.12-1.69-1.7a9.42,9.42,0,0,1-.52-1.19,8.75,8.75,0,0,0-.51-1.18,4.07,4.07,0,0,1-.3-1.42v-.8a4.29,4.29,0,0,0-.07-.79l-.29-.16.22-1.66h.14a2.22,2.22,0,0,1-.07.64h.52v-.08A.43.43,0,0,0,212,88c.05-.37.12-.58.22-.63a.54.54,0,0,0,.37-.48.65.65,0,0,1,.22-.39.46.46,0,0,0,.29-.4,1.18,1.18,0,0,1,.15-.63,1.81,1.81,0,0,0,.22-.55c.25-.27.42-.24.52.07a9.25,9.25,0,0,1,.51,1c.15.35.3.68.44,1l.15.32a.43.43,0,0,1-.07.39.56.56,0,0,0,.14.4,1.64,1.64,0,0,1,.67.55.7.7,0,0,0,.73.32l.07.08c.1.15.2.23.3.23a.63.63,0,0,1,.29.08,1.87,1.87,0,0,0,1.4-.23A2,2,0,0,0,219.94,88c.15-.26.28-.53.41-.79s.23-.53.33-.79a4.3,4.3,0,0,1,.37-.87l.44-.79c.24-.48.46-1,.66-1.46a8.62,8.62,0,0,0,.44-1.63,7.78,7.78,0,0,0,.15-1.46,6.62,6.62,0,0,0-.15-1.38,1.37,1.37,0,0,1-.11-.36.78.78,0,0,0-.18-.35,3.89,3.89,0,0,1-.63-.91c-.17-.35-.36-.7-.55-1.07a2.22,2.22,0,0,0-.52-.79,3.82,3.82,0,0,0-.8-.4l-1.25-.47L217.3,74a5.47,5.47,0,0,1-.89-.35,1.22,1.22,0,0,1-.22-.32A1.19,1.19,0,0,0,216,73a.44.44,0,0,0-.33-.16.44.44,0,0,1-.33-.16c-.15-.32-.47-.37-1-.16l-.73.4a15.92,15.92,0,0,0-3.31,3,21.18,21.18,0,0,0-2.72,3.64,26.51,26.51,0,0,0-2.06,4c-.1.27-.21.53-.33.79a2.3,2.3,0,0,0-.18,1,18,18,0,0,0,.88-2,1.76,1.76,0,0,1,.29-.56,1.85,1.85,0,0,1,.44-.31,2.15,2.15,0,0,1,0,.67c0,.08-.09.25-.18.51A18.75,18.75,0,0,0,205.35,87,15.87,15.87,0,0,0,205,90a.21.21,0,0,1,0,.06,2.75,2.75,0,0,1-1.17,1.1,2.88,2.88,0,0,0-1.18,1s-.15.19-.44.4-.6.44-.92.71-.77.6-1.36,1c-.29.26-.82.68-1.58,1.26A11,11,0,0,1,196,96.92a3,3,0,0,1-2,.28c-.56-.16-.77-.84-.62-2,.14-.43.34-1,.58-1.7s.52-1.47.81-2.26.57-1.54.81-2.25a14.78,14.78,0,0,0,.52-1.78c.09-.53.23-1.19.4-2a20.91,20.91,0,0,0,.37-2.45,20.34,20.34,0,0,0,.07-2.45,3.72,3.72,0,0,0-.48-1.9,4.94,4.94,0,0,0-3.89-.95,7.7,7.7,0,0,0-3.83,2.22c-.24.26-.59.62-1,1.07L186.3,82.1c-.46.47-.92.92-1.36,1.34a11.74,11.74,0,0,0-1,1.11A8.91,8.91,0,0,1,183,86c-.49.71-1,1.41-1.54,2.1a10.14,10.14,0,0,1-1.44,1.54c-.41.34-.62.25-.62-.28s.18-1,.26-1.3a7.71,7.71,0,0,1,.25-.95c.1-.29.21-.59.33-.91s.29-.74.48-1.26q.38-1,.81-2t.81-2c.34-.74.69-1.45,1-2.13s.71-1.4,1.1-2.14L185.9,74c.29-.53.6-1.06.92-1.59s.62-1.08.92-1.66a1.43,1.43,0,0,0,.25-.43,1.5,1.5,0,0,1,.26-.44A4.53,4.53,0,0,0,189,69c.22-.31.46-.68.7-1.1a17.86,17.86,0,0,1,1.58-2.41c.66-.87,1.26-1.6,1.8-2.18l1-1.19c.35-.47.71-.65,1.11-.55l.88.32.59.23a1,1,0,0,1,.51.56c.1.26.22.21.37-.16a3.33,3.33,0,0,0,.22-1.82,3.88,3.88,0,0,0-.51-1.5,10.26,10.26,0,0,0-1.25-3,17.77,17.77,0,0,0-2.36-3.2,8.54,8.54,0,0,0-2.83-2.09,2.33,2.33,0,0,0-2.68.35,20.82,20.82,0,0,0-3.6,4.19,37.24,37.24,0,0,0-2.51,4c-.78,1.42-1.54,2.9-2.27,4.42q-1,1.83-1.77,3.6T176.41,71c-.59,2-1.33,4.38-2.24,7.12s-1.72,5.61-2.43,8.61c-.26,1.11-.48,2.21-.69,3.31a10.34,10.34,0,0,0-.48,1.36,12.36,12.36,0,0,1-.85,2.21,9.52,9.52,0,0,1-.84,1.43c-.37.52-.76,1.05-1.18,1.58s-.83,1-1.25,1.5-.77.87-1.07,1.19c-.09.1-.29.29-.58.55s-.62.53-1,.79-.66.53-1,.79a5.07,5.07,0,0,1-.58.48,2.16,2.16,0,0,1-1.33.39h-1.32c-.1,0-.16,0-.18,0a.21.21,0,0,0-.12,0,2,2,0,0,0-.33-.43,2.12,2.12,0,0,1-.33-.52,15,15,0,0,1-.47-1.78,14,14,0,0,1-.26-1.85A16.91,16.91,0,0,1,158,95c.1-1.06.22-2.12.37-3.2s.33-2.09.55-3a14,14,0,0,1,.63-2.09,1.82,1.82,0,0,0,.33-.91,2.15,2.15,0,0,1,.25-.91c.2-.32.38-.65.56-1a5.73,5.73,0,0,0,.4-1.07,8.28,8.28,0,0,1,.37-1.19c.14-.36.32-.76.51-1.18l.37-.87c.49-1.32,1-2.61,1.54-3.88s1-2.58,1.47-4l.15-.24c.15-.36.34-.58.59-.63l1.69-.24a1.51,1.51,0,0,1,.48-.07.86.86,0,0,0,.48-.16,4.91,4.91,0,0,1,1.54-.24,3.3,3.3,0,0,0,1.32-.12,9.9,9.9,0,0,1,1.25-.28l.08-.07,1.62-.8.51-.39.29-.48-.69-.15a2.68,2.68,0,0,0-.7-.08h-3.83l-2.72.23a1.33,1.33,0,0,1-.73-.15,2.22,2.22,0,0,0,.07-.64l.44-1.89.22-1.27a2.08,2.08,0,0,0,0-1.11c-.05-.21-.08-.4-.11-.59a6.32,6.32,0,0,1,0-.67,6,6,0,0,0-.52-2.53,2.43,2.43,0,0,0-.55-1,1.29,1.29,0,0,0-1.14-.16.19.19,0,0,1-.15.08,2.1,2.1,0,0,0-.7.12.88.88,0,0,1-.69,0,1.22,1.22,0,0,0-1,.32l-.51.63a8.93,8.93,0,0,0-1.29,1.54c-.37.55-.75,1.15-1.14,1.78a20.58,20.58,0,0,0-1,2.25,19.9,19.9,0,0,1-1,2.26,5,5,0,0,1-.37,1,7.09,7.09,0,0,0-.37.9,1,1,0,0,1-.73.64l-1.1.12a4.56,4.56,0,0,0-1,.19l-3,.72a1.31,1.31,0,0,0-.37.15,1.08,1.08,0,0,0,.19.44l.26.27,1.32.87a1.05,1.05,0,0,0,.7.32,3.58,3.58,0,0,1,.7.08c.44.11.67.34.7.71a4.23,4.23,0,0,1-.19,1.35c-.15.52-.33,1.06-.55,1.62a10.68,10.68,0,0,0-.48,1.46l-.66,2.53c-.1.26-.18.53-.26.79s-.13.53-.18.79l-.37,1.58q-.66,2.37-1.14,4c-.32,1-.57,2-.77,3a25.26,25.26,0,0,0-.44,3c-.1,1.08-.15,2.43-.15,4.07.05.58.12,1.24.22,2a13.63,13.63,0,0,0,.37,1.9,4,4,0,0,0,.44,1.11c.2.32.39.66.59,1a7.6,7.6,0,0,0,.81,1.3,11.71,11.71,0,0,0,1.17,1.31,12.67,12.67,0,0,0,1.33,1.1,2.86,2.86,0,0,0,1.25.56,6.23,6.23,0,0,0,1.39.15,14.8,14.8,0,0,0,1.48-.07,2.5,2.5,0,0,0,.66-.16c.29-.11.61-.24.95-.4l1-.43a3.79,3.79,0,0,0,.69-.36,10.92,10.92,0,0,0,1.7-1.66,12.19,12.19,0,0,1,1.76-1.74,4.43,4.43,0,0,0,.77-.91c.42-.55.86-1.16,1.33-1.82l1.28-1.82c.39-.55.64-.9.74-1.06l1.07-2.18c0,.12,0,.24,0,.36a23.24,23.24,0,0,0,.44,8,4.11,4.11,0,0,0,1,2.69,2.89,2.89,0,0,0,.48.56,1.69,1.69,0,0,1,.4.55.54.54,0,0,1,.22.2.24.24,0,0,0,.22.12c.25,0,.29,0,.15,0s-.08-.07.22-.12a4.22,4.22,0,0,1,.55-.12.4.4,0,0,1,.4.12h.45c.09-.16.17-.29.22-.4a1,1,0,0,1,.22-.31,1.64,1.64,0,0,0,.58-.79,4.58,4.58,0,0,0,.3-1.11c0-.27.11-.53.18-.79a7.55,7.55,0,0,0,.19-.79c.09-.27.17-.49.22-.67s.09-.41.14-.68a4.7,4.7,0,0,1,.45-1.42q.21-.39.84-1.74L179.5,96c.49-1.05,1-2,1.44-2.92s.77-1.48.91-1.74a12.07,12.07,0,0,1,.78-1c.27-.31.52-.63.77-.95l3.75-5a5.07,5.07,0,0,0,.88-1.26,1.54,1.54,0,0,1,.41-.64,5.09,5.09,0,0,0,.4-.39A8.22,8.22,0,0,1,190,80.64a4.85,4.85,0,0,1,1.61-1.11,3.19,3.19,0,0,1,1.77-.2,2.17,2.17,0,0,1,1.47,1.27v.71a1.45,1.45,0,0,1-.15.63,11.29,11.29,0,0,1-.51,1.58q-.37.87-1.11,2.49c-.49,1.08-1,2.2-1.54,3.36s-1,2.3-1.51,3.4a12.09,12.09,0,0,0-.84,2.69,6.24,6.24,0,0,0,.55,4.23,3.91,3.91,0,0,0,2.32,1.74,5.56,5.56,0,0,0,2.94-.08,5.12,5.12,0,0,0,2.42-1.38c.05,0,.22-.2.52-.44s.6-.5.92-.79l.92-.83a7,7,0,0,0,.58-.55,11.26,11.26,0,0,1,.63-1c.22-.32.45-.63.7-1a2.78,2.78,0,0,1,1.06-.75,1.53,1.53,0,0,0,.92-.83,3,3,0,0,1,.63-1.22,10.63,10.63,0,0,0,.71-1l.06.74a6.14,6.14,0,0,0,.37,1.62,3.53,3.53,0,0,0,1,1.66,20.38,20.38,0,0,1,1.61,1.78,7.32,7.32,0,0,0,2.65,1.78,8.62,8.62,0,0,0,1.25.35c.59.14,1.21.27,1.88.4s1.29.24,1.91.32a4.9,4.9,0,0,0,1.29,0,12.27,12.27,0,0,0,2.64-.56l.66-.24a7.37,7.37,0,0,0,2.36-1l.66-.44a3.41,3.41,0,0,1,.66-.35l.88-.64a1.82,1.82,0,0,0,.52-.39,4.77,4.77,0,0,1,.51-.48c.39-.31.76-.63,1.11-1a10,10,0,0,0,1-1.1,17.83,17.83,0,0,1,1.25-1.35l.41-.43a1.94,1.94,0,0,0,.33-.52c-.1,0-.15-.09-.15-.11a.19.19,0,0,0-.07-.12.66.66,0,0,1,.26-.44.76.76,0,0,0,.25-.51l-.58.24.29-.48.74-1a7.18,7.18,0,0,1,.47-.87,6,6,0,0,1,.63-.79,1.91,1.91,0,0,0,.37-.63,6,6,0,0,0,.33-1c.07-.32.16-.66.25-1a1.48,1.48,0,0,0-.55.4A3.2,3.2,0,0,0,232,86.13Zm-17.13-3.4.51-.87c.35-.42.68-.87,1-1.34a5.36,5.36,0,0,1,1.06-1.19,7.32,7.32,0,0,1,1-.59,1.56,1.56,0,0,1,1-.2.74.74,0,0,1,.59.55,2.78,2.78,0,0,1-.3,1.59,9.23,9.23,0,0,1-.62,1.46,9,9,0,0,0-.63,1.46,4.31,4.31,0,0,1-.51.75,1.88,1.88,0,0,1-.66.52,3.53,3.53,0,0,1-.85,0,1.21,1.21,0,0,1-.77-.44,2.22,2.22,0,0,0-.33-.28,1.26,1.26,0,0,1-.33-.27C214.62,83.65,214.58,83.26,214.87,82.73Zm-53-15.89c.1-.42.19-.84.26-1.27s.16-.84.26-1.26l.44-1,.29-.71c.1-.37.21-.72.34-1.07s.25-.67.4-1a2,2,0,0,1,.66-.79c.2-.21.34-.13.44.24s.09.73.11,1.07a5.41,5.41,0,0,1,0,1.06l-.3,1.9-.22,1.11-.44,2.45a1.24,1.24,0,0,1-.55.79,1.14,1.14,0,0,1-.81.16A1.12,1.12,0,0,1,162,68,1.54,1.54,0,0,1,161.85,66.84ZM159,79.17q.51-1.82.84-3.36c.22-1,.53-2.2.92-3.52a3.23,3.23,0,0,1,1.36-.67c.32,0,.52.07.59.28a1.85,1.85,0,0,1,0,.95,8.35,8.35,0,0,1-.44,1.34q-.51,1.11-.81,1.86t-.66,1.86a25.32,25.32,0,0,1-.92,2.37,9.94,9.94,0,0,1-1,1.82c-.27.37-.42.38-.44,0A14.53,14.53,0,0,1,159,79.17Zm47,10.68c.1-.17.22-.35.35-.54,0,.08,0,.15,0,.22L206.12,92l-.15-.16a11.26,11.26,0,0,1-.14-1.66Zm-.63-1,.22-1.11a6.6,6.6,0,0,1,.45-1.1v.55a2.63,2.63,0,0,1-.15.71c-.06.25-.11.49-.15.73a8.6,8.6,0,0,1-.42.8C205.35,89.2,205.36,89,205.38,88.82Zm1.7,6.8a.75.75,0,0,1-.52-.32l-.29-.43c-.1-.13-.2-.28-.3-.44a7.83,7.83,0,0,1-.7-2.64c0-.2,0-.4,0-.6s.24-.45.34-.63l0,0c0,.27,0,.55,0,.82v.24c.1.53.19,1,.26,1.5a5.08,5.08,0,0,0,.41,1.34l.14.16a.34.34,0,0,0,0-.39.59.59,0,0,1-.11-.32l-.22-.63.15-.08a3.94,3.94,0,0,1,.22.63,5.57,5.57,0,0,0,.22.71,5.75,5.75,0,0,0,.29.56,4.54,4.54,0,0,1,.3.55Z"/><path class="cls-1" d="M278.29,73.57a.46.46,0,0,1,.14-.23c.2-.11.3-.22.3-.36v-.43a10,10,0,0,0-1.43-.27c-.61-.08-1.26-.13-1.94-.16a18.37,18.37,0,0,0-2,0,6.19,6.19,0,0,0-1.62.32h3.38a17.12,17.12,0,0,1-2.72.23,12.88,12.88,0,0,0-2.71.31.29.29,0,0,1-.22-.07.69.69,0,0,0-.29-.16l1.68-.24a15.71,15.71,0,0,0-2.12.16l-2.13.31c-2.05.32-3.32.16-3.81-.47a2.21,2.21,0,0,1-.15-2.35,14.72,14.72,0,0,0,.92-2.43,2,2,0,0,1,.62-1.13,3,3,0,0,1,1.51-.47c.7-.08,1.84-.22,3.4-.43.35-.06.69-.09,1-.12s.71,0,1.1,0a.28.28,0,0,1,.15,0c.05,0,.12,0,.22,0,.53-.1,1.1-.18,1.68-.24a4,4,0,0,0,1.76-.62h-.95a2,2,0,0,1,1.28-.47,5.56,5.56,0,0,0,1.36-.16l1-.12a3.43,3.43,0,0,0,.91-.19,5.18,5.18,0,0,1,1.54-.36,11.48,11.48,0,0,1,1.54,0l.08.16a.68.68,0,0,0-.26,0,.68.68,0,0,1-.26,0v.55c0,.15.13.23.37.23-.2-.31-.12-.49.22-.55l1.39-.23-1.61.78a1.4,1.4,0,0,0,1.1-.12,8.05,8.05,0,0,0,1-.66,1.54,1.54,0,0,1,1.17-.39c.39.1.63.09.73,0a2.51,2.51,0,0,0,.3-.83h-.66l1.46-.94a2,2,0,0,1-.15-.5,1.65,1.65,0,0,1,.22-.51,1.41,1.41,0,0,0,.08-1.57,5.45,5.45,0,0,1-.3-.55.65.65,0,0,0-.51-.39c-.1,0-.19-.11-.29-.31l-.44-.55c-.1-.11-.31-.09-.62,0s-.51.24-.55.35a2,2,0,0,1,.29.47,1.44,1.44,0,0,1-1.32.7c-.64,0-1.25,0-1.83,0l-1.84.12a14,14,0,0,1-1.43.08h-1.42a1.32,1.32,0,0,1-.44-.08l-.44-.16c-.25.06-.51.12-.77.2a2.56,2.56,0,0,1-.7.12l-1.91.15a5.33,5.33,0,0,1-1.83-.15,1.45,1.45,0,0,0-.84-.08,6,6,0,0,1-.92.08l-7.33.39a.66.66,0,0,1-.51-.16.34.34,0,0,1,0-.31,2.49,2.49,0,0,0,.14-.39c-.24.15-.42.19-.55.11a1.18,1.18,0,0,1-.32-.27.82.82,0,0,0-1.1-.08v.55c0,.42-.07.68-.19.78a1.23,1.23,0,0,1-.77.16c-.49,0-.95,0-1.39,0s-.88-.06-1.32-.12a2.74,2.74,0,0,1-.62-.07,8,8,0,0,1-.77-.24l.4-.23a.38.38,0,0,1,.26-.08l2.2-.16h.58a2.39,2.39,0,0,0,.59-.08,1.49,1.49,0,0,0,.07-.47L253.51,58a1.74,1.74,0,0,1-1.61-.71c0-.05-.05-.08-.15-.08-.49.11-.73.35-.73.71-.1.58-.22,1.16-.37,1.76a3.14,3.14,0,0,0,.08,1.77.31.31,0,0,1,0,.39,1,1,0,0,0,0,.82l.33.67.37.78a5.21,5.21,0,0,0,.33.71,7.2,7.2,0,0,0,.4.62,4.6,4.6,0,0,0,.37.51,1,1,0,0,0,.51.35,4.29,4.29,0,0,1,2,1.22,2.09,2.09,0,0,1,.29,1.64,9.69,9.69,0,0,1-.84,2.36c-.44.91-.93,2-1.47,3.4a2,2,0,0,1-.44.71c-.44.68-.88.73-1.32.16a6,6,0,0,1-1.17.19q-.58,0-1.17.12a2.27,2.27,0,0,1-1.1,0c-.15-.08-.32-.38-.52-.9a2.41,2.41,0,0,0-.18-.43c-.07-.13-.16-.28-.26-.43l-.36.31a3.23,3.23,0,0,1-.37.7c-.29.68-.52,1-.7,1.06s-.47-.17-.91-.59h-.15a2.58,2.58,0,0,1-.18.32,1.65,1.65,0,0,0-.18.31,5.77,5.77,0,0,0,0,3.45c0,.16.08.3.11.43a1,1,0,0,1-.11.51c-.1.37,0,.55.22.55a.53.53,0,0,1,.36.23,1.22,1.22,0,0,0,.22.32.35.35,0,0,0,.26.19.64.64,0,0,1,.33.2c.1.05.14.15.14.31.1.37.19.72.26,1.06s.16.69.26,1.06a11.39,11.39,0,0,1-.08,2.15c-.09,1-.23,2-.4,3.06s-.34,2.09-.51,3.05-.28,1.72-.33,2.24q-.07.47-.15.9a4.3,4.3,0,0,1-.22.82,3.23,3.23,0,0,1-.18.55,2.54,2.54,0,0,0-.18.55l-.66,3.37a4.06,4.06,0,0,0-.22.74,6.22,6.22,0,0,1-.22.75,2,2,0,0,0,.44,2.66,2,2,0,0,0,.51.27,6.23,6.23,0,0,1,.59.28l1.39.63,1.32.54a5.18,5.18,0,0,0,.91.08,4.11,4.11,0,0,0,1-.15c.39-.11.77-.2,1.14-.28l1.14-.27a3,3,0,0,0,.14-.71c.15-.73.3-1.47.44-2.23s.32-1.5.52-2.23a11.47,11.47,0,0,1,.33-1.22c.12-.39.25-.79.4-1.21.24-.58.55-1.39.91-2.43l1.14-3.25c.39-1.13.77-2.21,1.14-3.26s.67-1.85.91-2.43c.64-1.61,1.09-2.83,1.36-3.64a5.41,5.41,0,0,1,1-1.88,4.81,4.81,0,0,1,1.65-1.14c.71-.31,1.79-.75,3.26-1.33l2.57-.94.58-.15c.49-.11,1-.2,1.47-.28a5.1,5.1,0,0,0,1.39-.43,26.79,26.79,0,0,1,4.11-1.25,1,1,0,0,1,.44-.2.55.55,0,0,0,.36-.35,1.51,1.51,0,0,1,.41-.43l.47-.36c.39-.26.78-.49,1.17-.7A1.46,1.46,0,0,0,278.29,73.57ZM274,64.72q-.3.47-.66.15Zm-1.91.31.37-.16c0,.06,0,.08,0,.08s0,0,0,.08l-.44.16Z"/><path class="cls-1" d="M362.44,85.56a2.12,2.12,0,0,0-.77-.43.36.36,0,0,0-.4.24,5.35,5.35,0,0,0-.33.78,11.91,11.91,0,0,1-.48,1.14c-.73,1.35-1.43,2.7-2.09,4a35,35,0,0,1-2.31,4,13,13,0,0,0-1.21,3,4.77,4.77,0,0,1-.77,1.88,9,9,0,0,0-.95,1.73,1.66,1.66,0,0,0-.29.59.26.26,0,0,0,0,.15s0,.07,0,.12a5.76,5.76,0,0,1-.33.55l-.25.27-.26.28a2.65,2.65,0,0,0-.88.51,3,3,0,0,1-1.39.43h.07a.52.52,0,0,0-.14.39,1.25,1.25,0,0,1-.59-.28,3.26,3.26,0,0,0-.51-.35,2.77,2.77,0,0,0-.52-.55q.3-.22.3,0a.49.49,0,0,1,.14.28.63.63,0,0,0,.08.27.4.4,0,0,1,.29-.15.63.63,0,0,0,.29-.08c-.39-.42-.77-.81-1.13-1.18a4.16,4.16,0,0,1-.92-1.41,1.22,1.22,0,0,1-.37-1,.93.93,0,0,0-.22-.7,1.46,1.46,0,0,0-.44-.79c-.14-.52-.28-1-.4-1.52a11.05,11.05,0,0,1-.26-1.61,2.17,2.17,0,0,1,0-.71,1.69,1.69,0,0,0-.11-.7.46.46,0,0,1-.08-.31v-2a6.83,6.83,0,0,0,.11-.79,1.63,1.63,0,0,0-.11-.78,1.7,1.7,0,0,1,0-.59,5.35,5.35,0,0,0,0-.58c.2-.21.25-.4.15-.55a3.67,3.67,0,0,1,.07-.75,1.84,1.84,0,0,0,0-.74,8.41,8.41,0,0,0,.44-1.88c.05-.32.1-.64.15-1a6.08,6.08,0,0,1,.22-1,1.48,1.48,0,0,1,.44-.86,1.49,1.49,0,0,0,.22-.9c0-.19.07-.49.37-.91s.67-.86,1-1.33A5,5,0,0,0,349,78.2a1.8,1.8,0,0,1,.41-.67l.55-.59A2.7,2.7,0,0,0,351,75.53a5.19,5.19,0,0,1,1.18-2.11,8.34,8.34,0,0,0,.88-2c.05-.26.1-.49.14-.67s.13-.4.22-.67.29-.62.41-.94.23-.62.33-.94a15.38,15.38,0,0,1,.95-1.88,4.83,4.83,0,0,0,.44-1.33.3.3,0,0,0,0-.23c0-.06,0-.13,0-.24a2,2,0,0,0,.33-1c0-.34,0-.66,0-1l.22-1.72a3.76,3.76,0,0,0,.07-1.3c0-.44-.1-.87-.14-1.29a1.67,1.67,0,0,0-.3-.62,5.75,5.75,0,0,1-.95-.79,4.44,4.44,0,0,0-.88-.7,4,4,0,0,0-1.47-.47,1.78,1.78,0,0,0-1.39.47,20.72,20.72,0,0,1-1.83,1.25l-.48.35a3,3,0,0,0-.4.36,21,21,0,0,1-1.91,1.8,7.82,7.82,0,0,0-.91,1.17c-.27.42-.53.84-.77,1.26-.25.57-.52,1.15-.81,1.72s-.58,1.15-.88,1.72c-.1.27-.17.49-.22.67a3.63,3.63,0,0,1-.22.59,9.44,9.44,0,0,1-.36,1.06c-.15.34-.3.69-.44,1.05s-.19.53-.26.79-.16.52-.26.78l-.36,1a6.77,6.77,0,0,0-.63,2.19,21.18,21.18,0,0,1-.44,2.35c-.17.68-.41,1.09-.73,1.22s-.8-.28-1.43-1.22l-1.25-.54a2,2,0,0,0-.58-.16l-.7.12a1.66,1.66,0,0,0-.62.19,11.68,11.68,0,0,0-5.28,3.53,15.28,15.28,0,0,0-1.83,2.39c-.54.86-1.05,1.74-1.54,2.62a11.46,11.46,0,0,0-1,2.63c-.08.32-.17.66-.25,1a16.09,16.09,0,0,1-2.24.26c-.66,0-1.3,0-1.91,0s-1.26,0-1.94,0-1.47,0-2.35,0a.84.84,0,0,1-.69-.31.66.66,0,0,1-.11-.71,4,4,0,0,0,.07-1.29,6.27,6.27,0,0,1,0-1.37,4.24,4.24,0,0,0,0-.43c0-.24,0-.43,0-.59a2.93,2.93,0,0,1-.15-.9,9.38,9.38,0,0,0-.07-1,9.64,9.64,0,0,1-.22-1.18,10.52,10.52,0,0,0-.22-1.09,4.77,4.77,0,0,1-.37-.83c-.1-.28-.2-.58-.29-.9a5.6,5.6,0,0,0-1.47-2.35,4.45,4.45,0,0,1-.7-.55l-.69-.62a3,3,0,0,1-.48-.39c-.22-.21-.46-.44-.73-.67a6.92,6.92,0,0,0-.77-.59,1.27,1.27,0,0,0-.59-.23,3.12,3.12,0,0,0-2.34.39c-.44.26-.85.52-1.21.78a9.27,9.27,0,0,0-1,.79.69.69,0,0,0-.52.39,7.53,7.53,0,0,0-.73,1.88,5.13,5.13,0,0,0-.07,2,16.56,16.56,0,0,0,.47,2.58,10.74,10.74,0,0,0,.92,2.35.34.34,0,0,1,.07.24.83.83,0,0,1-.29.47c-.28.38-.55.76-.8,1.13l-.67.36a12.84,12.84,0,0,0-2.41.66c-.74.29-1.47.57-2.2.83s-1.48.51-2.24.74a10,10,0,0,1-2.45.43.84.84,0,0,1-.7-.31.68.68,0,0,1-.11-.71,3.7,3.7,0,0,0,.07-1.29,6.27,6.27,0,0,1,0-1.37s0-.2,0-.43a4.71,4.71,0,0,1,0-.59,2.93,2.93,0,0,1-.15-.9,7.26,7.26,0,0,0-.07-1,12,12,0,0,1-.22-1.18,8.42,8.42,0,0,0-.22-1.09,4.77,4.77,0,0,1-.37-.83c-.1-.28-.19-.58-.29-.9a5.5,5.5,0,0,0-1.47-2.35,4.38,4.38,0,0,1-.69-.55c-.22-.2-.45-.41-.7-.62a3,3,0,0,1-.48-.39c-.22-.21-.46-.44-.73-.67a6.1,6.1,0,0,0-.77-.59,1.25,1.25,0,0,0-.58-.23,3.15,3.15,0,0,0-2.35.39c-.44.26-.84.52-1.21.78a9.27,9.27,0,0,0-1,.79.67.67,0,0,0-.51.39,7.57,7.57,0,0,0-.74,1.88,5.34,5.34,0,0,0-.07,2,17.82,17.82,0,0,0,.48,2.58,10.71,10.71,0,0,0,.91,2.35.35.35,0,0,1,.08.24.89.89,0,0,1-.3.47q-.79,1.09-1.5,2.19a14.12,14.12,0,0,0-1.21,2.43,13.42,13.42,0,0,0-1.24,4.31,12.13,12.13,0,0,0-.11,2.16,20.11,20.11,0,0,0,.18,2.15l.66,2.12a8,8,0,0,0,1.24,1.68,2.88,2.88,0,0,0,1.69.82,6.69,6.69,0,0,0,1.47.16,5.81,5.81,0,0,0,1.54-.23,1.35,1.35,0,0,1,.73-.32,4.13,4.13,0,0,0,2.05-1.49.72.72,0,0,1,.44-.47l.51-.39a1.75,1.75,0,0,0,.59-.59c.15-.23.29-.48.44-.74l.73-1.1a6.39,6.39,0,0,0,.66-1.25c.25-.68.52-1.33.81-2a7.15,7.15,0,0,0,.59-2,1.67,1.67,0,0,0,.14-.39c0-.16.15-.24.44-.24h.22a13.45,13.45,0,0,0,2.71-.39,28.81,28.81,0,0,0,3.63-1.06,28.08,28.08,0,0,0,3.12-1.32c-.07.17-.16.33-.22.5a13.45,13.45,0,0,0-1.25,4.31,13.14,13.14,0,0,0-.11,2.16c0,.7.09,1.42.19,2.15l.66,2.12a8,8,0,0,0,1.24,1.68,2.85,2.85,0,0,0,1.69.82,6.6,6.6,0,0,0,1.46.16,5.75,5.75,0,0,0,1.54-.23,1.41,1.41,0,0,1,.74-.32,4.17,4.17,0,0,0,2-1.49.7.7,0,0,1,.44-.47l.51-.39a1.75,1.75,0,0,0,.59-.59l.44-.74.73-1.1a7.68,7.68,0,0,0,.66-1.25,20.12,20.12,0,0,1,.81-2,7.13,7.13,0,0,0,.58-2,1.45,1.45,0,0,0,.15-.39c0-.16.15-.24.44-.24h.22c.63,0,1.5,0,2.6,0s2.22-.1,3.37-.23a15.05,15.05,0,0,0,3.15-.68,11.08,11.08,0,0,0-.14,1.19c0,.52,0,1,0,1.57a.61.61,0,0,0,0,.39,3.59,3.59,0,0,1,0,.47,3,3,0,0,1,.11.43,1.91,1.91,0,0,1,0,.43,5.44,5.44,0,0,0,.59,2.74,6.44,6.44,0,0,0,2.78,3.22,8.44,8.44,0,0,0,1.39.66,10,10,0,0,0,1.4.43,1.78,1.78,0,0,0,1.9-.47,1.27,1.27,0,0,1,.44-.31,4.73,4.73,0,0,0,2.79-3,3.71,3.71,0,0,1,.73-1.64l.44-.47c0,.1,0,.17.07.19a.43.43,0,0,1,.15.2,4,4,0,0,0,.07,1.25q.08.63.15,1.14a9.12,9.12,0,0,0,.22,1.06,6.7,6.7,0,0,0,.22.94,1.73,1.73,0,0,1,.07.86,2.94,2.94,0,0,0,0,.59,1.26,1.26,0,0,0,.26.5s.12.14.22.4a6.12,6.12,0,0,0,.44,1.45c.19.44.39.87.58,1.29.34.57.71,1.15,1.1,1.72a6.41,6.41,0,0,0,1.4,1.49,5.39,5.39,0,0,0,.73.9,1.65,1.65,0,0,0,.58.39l.59.24.88.35a4.47,4.47,0,0,0,2,.39.63.63,0,0,0,.18-.27.64.64,0,0,1,.11-.2,11.33,11.33,0,0,0,1.21-.66c.37-.24.77-.49,1.21-.75a7,7,0,0,1,.81-.58,2.77,2.77,0,0,0,.73-.67,4,4,0,0,0,.77-.71c.22-.26.45-.52.7-.78l.88-1.33a10.08,10.08,0,0,0,.88-2,1.89,1.89,0,0,1,.44-.86l1-1.49s.08-.13.22-.24c.05-.31.09-.56.11-.74a3.93,3.93,0,0,1,.15-.59,3.61,3.61,0,0,1,.37-.74,12.8,12.8,0,0,1,.77-1.14l.66-.86a6.1,6.1,0,0,0-.44-.43c-.05,0-.07,0,0,0a.6.6,0,0,0,.18-.12,1.29,1.29,0,0,0,.3-.59,5,5,0,0,1,1.17-1.76,8.21,8.21,0,0,0,1.39-1.76c.29.1.48.09.55,0a1.59,1.59,0,0,0,.15-.55c0-.24.05-.48.07-.74a.72.72,0,0,1,.26-.55,3.32,3.32,0,0,0,.36-.67.8.8,0,0,0-.22-.82l.11-.12.41-.43a2.24,2.24,0,0,0,.33-.47c.07-.16,0-.23-.11-.23a1.33,1.33,0,0,1,.18-.79c.12-.16.22-.27.29-.35a.33.33,0,0,0,.11-.24C362.73,85.83,362.63,85.72,362.44,85.56ZM346.9,76.94a15.92,15.92,0,0,1,.37-2.15c.19-.87.36-1.61.51-2.24a9.25,9.25,0,0,1,.66-2.62,20.26,20.26,0,0,0,.88-2.63,5.93,5.93,0,0,1,.22-.82c.1-.29.19-.56.29-.82a3.3,3.3,0,0,0,.15-1.33,1,1,0,0,1,.51-.87,4.38,4.38,0,0,0,.95-1.48,2.42,2.42,0,0,0,.44-1.49,1,1,0,0,1,.08-.36l.14-.35.63-.82a2.7,2.7,0,0,0,.47-1,.58.58,0,0,1,.19-.24,1.64,1.64,0,0,0,.25-.23c.49-.32.86-.16,1.1.47.05.26.09.5.11.7a5.14,5.14,0,0,1,0,.71c-.05,1-.11,2.06-.18,3a8.72,8.72,0,0,1-.7,2.83.9.9,0,0,0-.15.51v.5a3.06,3.06,0,0,1-.22,1.18c-.34.68-.66,1.33-.95,2s-.56,1.28-.81,2a9,9,0,0,1-.84,1.45l-.92,1.29a10.62,10.62,0,0,0-.76,1.29c-.22.45-.46.9-.7,1.37-.78.89-1.28,1.29-1.5,1.18S346.85,77.52,346.9,76.94ZM288,92a4.28,4.28,0,0,1-.44,1c-.39.89-.81,1.76-1.25,2.62a12.07,12.07,0,0,1-1.61,2.39l-.29.24a.21.21,0,0,1-.15.07,1.64,1.64,0,0,1-.81-.94c-.1-.2-.12-.33-.07-.39V96.3a2.7,2.7,0,0,1,.07-.63c.25-.73.44-1.32.59-1.76a7.53,7.53,0,0,1,.81-1.61,5,5,0,0,1,1.46-1.45,2,2,0,0,1,2,.2A8.73,8.73,0,0,0,288,92Zm1.9-6.47a2.49,2.49,0,0,1-1.28,1.61,2,2,0,0,1-1.87-.24A5,5,0,0,1,285,84.62a13.28,13.28,0,0,1-1.32-1.92,9.8,9.8,0,0,1-1-2.35,7.81,7.81,0,0,1-.26-2.51,4.72,4.72,0,0,1,.81-2.39l.59-.59a4.88,4.88,0,0,1,.8-.62,3.34,3.34,0,0,1,.85-.39.79.79,0,0,1,.77.19c.24.16.46.32.66.47l.65.55a1.22,1.22,0,0,1,.55.43,4.16,4.16,0,0,0,.41.51,4.14,4.14,0,0,1,1,1.88c.2.84.37,1.67.52,2.51a3.44,3.44,0,0,1,.07,1.88A6.62,6.62,0,0,1,289.94,85.48ZM311.05,92a3.56,3.56,0,0,1-.44,1c-.39.89-.8,1.76-1.24,2.62a12.07,12.07,0,0,1-1.61,2.39l-.3.24a.21.21,0,0,1-.14.07,1.58,1.58,0,0,1-.81-.94c-.1-.2-.12-.33-.07-.39V96.3a2.7,2.7,0,0,1,.07-.63c.24-.73.44-1.32.59-1.76a7.42,7.42,0,0,1,.8-1.61,5.12,5.12,0,0,1,1.47-1.45,2,2,0,0,1,2,.2Q311.2,91.44,311.05,92ZM313,85.48a2.49,2.49,0,0,1-1.28,1.61,2,2,0,0,1-1.87-.24A4.88,4.88,0,0,1,308,84.62a13.28,13.28,0,0,1-1.32-1.92,9.8,9.8,0,0,1-1-2.35,7.81,7.81,0,0,1-.26-2.51,4.72,4.72,0,0,1,.81-2.39l.58-.59a5.43,5.43,0,0,1,.81-.62,3.14,3.14,0,0,1,.84-.39.78.78,0,0,1,.77.19c.25.16.47.32.66.47s.42.34.66.55a1.22,1.22,0,0,1,.55.43,4.09,4.09,0,0,0,.4.51,4.15,4.15,0,0,1,1,1.88c.19.84.37,1.67.51,2.51a3.43,3.43,0,0,1,.08,1.88A6.88,6.88,0,0,1,313,85.48Zm23.75,4.31a4.57,4.57,0,0,0,0,1.65L336.56,93a.7.7,0,0,1,0,.24.47.47,0,0,0,0,.23,6.18,6.18,0,0,1-1.1,1.65c-.34.42-.68.81-1,1.18a10,10,0,0,0-1,1.17l-.58.63a1.88,1.88,0,0,1-.74.47c-.14-.16-.22-.26-.22-.32a4.34,4.34,0,0,1-.55-2.19,13.63,13.63,0,0,1,.26-2.19l1-2.2L333,91c.3-.58.55-1.14.77-1.69a5.72,5.72,0,0,1,.92-1.53q1.68-3,2.34-2.15C337.44,86.2,337.35,87.6,336.71,89.79Zm8.14,12.3v.08h-.08Zm-.22-.54.07.07a.53.53,0,0,1-.22-.07Zm-.74,6.81v.08h-.07A.07.07,0,0,1,343.89,108.36Zm.52,1.49a5,5,0,0,1-1.62-.86,8.39,8.39,0,0,1-1.24-1.33l-.29-.63-.08-.16c-.14-.05-.22-.13-.22-.23l.15-.08.22.24v.31H342a.43.43,0,0,0-.22,0s0,0,0,0l2.71,2.19.26.28.25.27A1.14,1.14,0,0,1,344.41,109.85Zm.73-7a.23.23,0,0,0-.07-.16l.07-.08a.14.14,0,0,0,.07.12.14.14,0,0,1,.08.12Zm0-5.25a2.3,2.3,0,0,1,.48.7c.07.21.16.45.25.71a9,9,0,0,1,.52,1.49l.14.23h-.14a.23.23,0,0,0,0-.23q-.15,0-.15-.24c-.24-.41-.46-.83-.66-1.25A5.82,5.82,0,0,1,345.14,97.63Zm2.64,7.13c-.29-.21-.44-.37-.44-.47-.29-.37-.56-.73-.81-1.1s-.51-.76-.8-1.17c.14-.11.23-.13.25-.08a.72.72,0,0,0,.11.15,4.78,4.78,0,0,1,1.1,1.73c.1.1.21.21.33.31a1,1,0,0,1,.26.32Z"/></svg>